<?xml version="1.0" encoding="UTF-8"?>
<svg version="1.1" xmlns="http://www.w3.org/2000/svg" width="506" height="480">
<path d="M0 0 C166.98 0 333.96 0 506 0 C506 158.4 506 316.8 506 480 C339.02 480 172.04 480 0 480 C0 321.6 0 163.2 0 0 Z " fill="#050606" transform="translate(0,0)"/>
<path d="M0 0 C30.03 0 60.06 0 91 0 C91.08823402 46.49831087 91.1620706 92.99654258 91.20426132 139.49491325 C91.20926396 144.98838958 91.21444126 150.48186573 91.21972656 155.9753418 C91.2207758 157.06896276 91.22182505 158.16258373 91.22290608 159.28934472 C91.24029638 176.9813551 91.2718265 194.67331332 91.30861118 212.3652928 C91.34605886 230.52805129 91.36824394 248.69078252 91.37635398 266.85357803 C91.38183381 278.05487623 91.39912176 289.25602699 91.43166587 300.45727979 C91.45286101 308.14546704 91.45918874 315.8335784 91.45400551 323.52179272 C91.4514515 327.95301009 91.45527942 332.38397038 91.4768219 336.81514168 C91.49644496 340.88144132 91.49716924 344.94731367 91.48359558 349.01363396 C91.48192073 350.47554184 91.48686084 351.9374776 91.49953273 353.39933152 C91.68457071 376.08669018 83.3496288 395.06096311 67.6953125 411.33984375 C64.33898195 414.65239608 60.96062463 417.45222977 57 420 C56.26652344 420.48726563 55.53304688 420.97453125 54.77734375 421.4765625 C37.58780419 432.37724612 18.5403857 437.18081752 -1.68078613 437.12025452 C-3.25533569 437.12153854 -3.25533569 437.12153854 -4.86169434 437.12284851 C-8.37721473 437.12449887 -11.89268711 437.1189879 -15.40820312 437.11352539 C-17.97232817 437.11321896 -20.5364533 437.11335271 -23.10057831 437.11389065 C-29.26663557 437.11409338 -35.43267518 437.1098151 -41.59872863 437.10338932 C-48.73476478 437.09617601 -55.87079587 437.09539384 -63.00683594 437.09460449 C-81.83789294 437.08935884 -100.66894669 437.07539767 -119.5 437.0625 C-161.575 437.041875 -203.65 437.02125 -247 437 C-247 332.72 -247 228.44 -247 121 C-224.56 121 -202.12 121 -179 121 C-179 203.83 -179 286.66 -179 372 C-150.49625 371.87625 -121.9925 371.7525 -92.625 371.625 C-83.6320166 371.59100098 -74.6390332 371.55700195 -65.37353516 371.52197266 C-57.29715819 371.48205422 -57.29715819 371.48205422 -49.22079468 371.43954468 C-45.62957097 371.42071179 -42.03837192 371.40733877 -38.44711304 371.39730835 C-33.85897396 371.38431304 -29.27097003 371.36188155 -24.68290591 371.33276629 C-23.00362516 371.32368927 -21.32432277 371.31786071 -19.64501882 371.31574559 C-0.53902588 371.34614625 -0.53902588 371.34614625 15.82421875 362.36328125 C22.39494371 355.28344443 22.29487688 347.56781014 22.2784729 338.33851624 C22.2871615 336.58382614 22.2871615 336.58382614 22.29602563 334.79368776 C22.31005649 331.56002103 22.31525344 328.32648093 22.31667423 325.09278858 C22.32037734 321.60069311 22.33553735 318.10864488 22.34928894 314.61657715 C22.37153702 308.57074036 22.38656503 302.52492043 22.39665604 296.47905159 C22.41125632 287.73780188 22.43679693 278.9966109 22.46498732 270.2553957 C22.51043079 256.07254174 22.5470557 241.88967931 22.578125 227.70678711 C22.60832056 213.93138136 22.64267545 200.15599632 22.68261719 186.38061523 C22.68507874 185.53116056 22.68754028 184.68170588 22.69007643 183.80651016 C22.70245122 179.54494409 22.71490772 175.28337827 22.72740483 171.02181256 C22.83093602 135.68123614 22.91960676 100.34063617 23 65 C15.41 65 7.82 65 0 65 C0 43.55 0 22.1 0 0 Z " fill="#42D4C2" transform="translate(396,23)"/>
<path d="M0 0 C106.26 0 212.52 0 322 0 C322 104.61 322 209.22 322 317 C300.22 317 278.44 317 256 317 C256 233.84 256 150.68 256 65 C194.29 65 132.58 65 69 65 C69 187.76 69 310.52 69 437 C46.23 437 23.46 437 0 437 C0 292.79 0 148.58 0 0 Z " fill="#43D4C2" transform="translate(21,23)"/>
<path d="M0 0 C22.44 0 44.88 0 68 0 C68 82.83 68 165.66 68 251 C125.42 251 182.84 251 242 251 C242 251.33 242 251.66 242 252 C237.93592137 252.96633457 234.12395476 253.13902728 229.95159912 253.16494751 C229.25382866 253.17059105 228.5560582 253.1762346 227.83714318 253.18204916 C225.50569349 253.19970863 223.1742645 253.21045074 220.84277344 253.22119141 C219.16880015 253.23241157 217.49482959 253.24404402 215.82086182 253.25605774 C211.27993316 253.28734292 206.73898965 253.31248653 202.19801617 253.3362546 C198.41020576 253.35668107 194.6224174 253.38021698 190.83462548 253.40379179 C181.90507134 253.45936805 172.9754989 253.51010641 164.04589844 253.55761719 C154.82027856 253.60676735 145.5947225 253.66306952 136.36916709 253.72303832 C128.45491097 253.77429032 120.54063852 253.82164521 112.6263392 253.86572587 C107.89628013 253.8920795 103.16623994 253.91982255 98.43621063 253.9510994 C93.99411858 253.9802608 89.55202662 254.00455141 85.10988617 254.02499962 C83.47515895 254.03333661 81.84043956 254.04340663 80.20573425 254.05528831 C77.98397219 254.07116222 75.76226823 254.08091188 73.54046631 254.08901978 C72.29424374 254.09601709 71.04802116 254.10301441 69.76403427 254.11022377 C67 254 67 254 66 253 C65.90363633 251.64993803 65.87628046 250.2948713 65.87695217 248.94137478 C65.87496112 248.06156805 65.87297007 247.18176131 65.87091869 246.27529377 C65.87383153 245.29768764 65.87674437 244.32008151 65.87974548 243.31285095 C65.87889106 242.28294133 65.87803663 241.25303171 65.87715632 240.19191271 C65.87549843 236.7124786 65.88102792 233.23309184 65.88647461 229.75366211 C65.88675644 227.27078757 65.88659883 224.78791294 65.8860321 222.30503845 C65.88580378 216.94498514 65.88865522 211.5849468 65.89426994 206.22489738 C65.90238272 198.47508204 65.90499993 190.72527258 65.90625793 182.97545344 C65.90844881 170.40314727 65.91510984 157.83084758 65.92456055 145.25854492 C65.93373376 133.04272494 65.94081504 120.82690671 65.94506836 108.61108398 C65.94533108 107.85862382 65.94559381 107.10616366 65.94586449 106.33090167 C65.94716949 102.55618636 65.94843321 98.78147104 65.94967639 95.00675571 C65.9600501 63.67116474 65.97848899 32.3355858 66 1 C44.88 1 23.76 1 2 1 C2 104.29 2 207.58 2 314 C44.19875 313.87625 86.3975 313.7525 129.875 313.625 C143.20116699 313.59100098 156.52733398 313.55700195 170.25732422 313.52197266 C182.19899446 313.4820656 182.19899446 313.4820656 194.14065552 313.43954468 C199.46104821 313.42067036 204.78142256 313.40715717 210.10183716 313.39730835 C216.89043705 313.38472118 223.67894099 313.36196185 230.46748948 313.33276629 C232.95758571 313.32365866 235.44769676 313.31785331 237.93780875 313.31574559 C241.30555833 313.31241789 244.67304516 313.29693303 248.04074097 313.2784729 C249.49658694 313.28137612 249.49658694 313.28137612 250.98184395 313.284338 C256.45910317 313.23966524 261.50257836 312.67253848 266.84378254 311.43991697 C269.58739912 310.88015734 272.21034653 310.85317613 275 311 C267.96241696 318.03758304 250.20506578 316.33482349 241.00518614 316.37481004 C237.52672176 316.37322918 234.04849188 316.35702075 230.57006836 316.34057617 C228.00484767 316.3396555 225.43962621 316.34006048 222.87440586 316.34167194 C216.73979427 316.34227685 210.60534428 316.32952849 204.4707675 316.31016796 C197.36108299 316.28841 190.25144378 316.28617513 183.14172363 316.28381348 C164.40696149 316.26811763 145.67222868 316.22623385 126.9375 316.1875 C85.048125 316.125625 43.15875 316.06375 0 316 C0 211.72 0 107.44 0 0 Z " fill="#5FD7C8" transform="translate(149,144)"/>
<path d="M0 0 C1.12563547 0.00149235 2.25127095 0.00298469 3.41101658 0.00452226 C4.65807625 0.01132605 5.90513592 0.01812984 7.18998528 0.02513981 C9.16490434 0.0299835 9.16490434 0.0299835 11.17972076 0.03492504 C14.84653393 0.04405402 18.51329816 0.05948715 22.18008494 0.07590783 C26.12963235 0.09250491 30.07919597 0.10331504 34.02876091 0.11481571 C40.87574094 0.13555114 47.72269987 0.15998118 54.56965828 0.18689632 C64.4693009 0.22580616 74.36895604 0.25918172 84.2686231 0.29119159 C100.32884096 0.34327213 116.38903972 0.39984989 132.4492321 0.4592371 C148.0533912 0.5169284 163.65755545 0.57251332 179.2617321 0.62525272 C180.22301923 0.62850244 181.18430636 0.63175216 182.1747234 0.63510036 C186.99705296 0.65138965 191.81938266 0.66763739 196.64171243 0.68386447 C236.66953555 0.81861142 276.69733031 0.960649 316.72511101 1.10743046 C316.72511101 1.76743046 316.72511101 2.42743046 316.72511101 3.10743046 C210.46511101 3.10743046 104.20511101 3.10743046 -5.27488899 3.10743046 C-5.27488899 147.31743046 -5.27488899 291.52743046 -5.27488899 440.10743046 C-6.26488899 440.10743046 -7.25488899 440.10743046 -8.27488899 440.10743046 C-8.93488899 438.78743046 -9.59488899 437.46743046 -10.27488899 436.10743046 C-9.61488899 436.10743046 -8.95488899 436.10743046 -8.27488899 436.10743046 C-8.27545857 434.73799086 -8.27545857 434.73799086 -8.27603966 433.34088582 C-8.29839815 379.27988684 -8.31556563 325.21888835 -8.32595432 271.15788568 C-8.32720509 264.67256141 -8.32849941 258.18723714 -8.32982063 251.70191288 C-8.33008294 250.41075423 -8.33034525 249.11959558 -8.33061551 247.78931091 C-8.33497161 226.85919002 -8.34285882 205.92907186 -8.35204179 184.99895259 C-8.36138001 163.53661276 -8.36694496 142.07427436 -8.36897749 120.61193258 C-8.37035236 107.35926815 -8.37470106 94.10661145 -8.38280546 80.85394941 C-8.38807499 71.776827 -8.38969281 62.69970861 -8.38839037 53.62258478 C-8.38774732 48.37879283 -8.38876085 43.13501443 -8.39409447 37.89122486 C-8.39893583 33.09661492 -8.39922274 28.30202772 -8.39578789 23.50741676 C-8.39536293 21.76713218 -8.39665245 20.02684621 -8.39977217 18.28656437 C-8.4037496 15.93210727 -8.40164388 13.5777337 -8.39793682 11.22327805 C-8.39831654 9.91210375 -8.39869626 8.60092945 -8.39908749 7.25002259 C-8.27488899 4.10743046 -8.27488899 4.10743046 -7.27488899 1.10743046 C-4.70000498 -0.18001155 -2.8843432 -0.01008512 0 0 Z " fill="#010F0F" transform="translate(26.27488899230957,19.892569541931152)"/>
<path d="M0 0 C61.71 0 123.42 0 187 0 C187 83.16 187 166.32 187 252 C185 250 185 250 184.75390434 248.18410784 C184.75574793 247.44224165 184.75759151 246.70037546 184.75949097 245.93602848 C184.75536792 244.65268261 184.75536792 244.65268261 184.75116158 243.34341055 C184.76194646 241.92529512 184.76194646 241.92529512 184.77294922 240.47853088 C184.7726515 239.4784684 184.77235378 238.47840592 184.77204704 237.44803852 C184.77344314 234.07538251 184.78915956 230.70294068 184.8046875 227.33032227 C184.80852323 224.92113365 184.81145206 222.51194345 184.8135376 220.10275269 C184.81987388 214.90422096 184.83220904 209.70573928 184.84967041 204.50723457 C184.87474253 196.98774953 184.88692357 189.46828556 184.89553714 181.94876563 C184.90968134 169.74536811 184.93129288 157.54199704 184.95898438 145.33862305 C184.96064 144.60784036 184.96229562 143.87705768 184.96400142 143.12413006 C184.97749043 137.19479046 184.99133956 131.2654517 185.00520706 125.33611298 C185.01731082 120.15465838 185.02927191 114.97320348 185.04101562 109.79174805 C185.04267188 109.06215579 185.04432813 108.33256353 185.04603457 107.58086241 C185.07338603 95.42524891 185.09291543 83.26963496 185.10683632 71.11399883 C185.11581013 63.61151396 185.13191367 56.10910762 185.15712595 48.6066594 C185.17593584 42.86147186 185.18465969 37.1163045 185.1896286 31.37108994 C185.19338573 29.00994365 185.20061342 26.64880006 185.21149445 24.28767586 C185.2258401 21.07453731 185.22800585 17.86161769 185.22705078 14.64845276 C185.23783566 13.23368341 185.23783566 13.23368341 185.24883842 11.79033285 C185.24471538 10.50307536 185.24471538 10.50307536 185.24050903 9.18981266 C185.24235262 8.44778412 185.24419621 7.70575558 185.24609566 6.94124132 C185.10532841 4.67520247 185.10532841 4.67520247 183 2 C180.55996196 1.69291369 178.36991866 1.58421522 175.92599487 1.60127258 C175.1892466 1.59462576 174.45249832 1.58797893 173.69342434 1.58113068 C171.21198176 1.56240159 168.73101715 1.56511253 166.24951172 1.56762695 C164.47583327 1.55861581 162.70216107 1.5482902 160.92849731 1.53674316 C156.10230713 1.50907082 151.27623476 1.49987482 146.44997549 1.49388909 C141.4103789 1.48453195 136.37087126 1.45833084 131.33132935 1.43388367 C121.78326872 1.39014153 112.23522528 1.36164202 102.68709481 1.33856028 C91.81900594 1.31154987 80.95100621 1.26763588 70.08298087 1.22227156 C47.72203551 1.12931484 25.36106219 1.05768469 3 1 C2.99864347 1.77504198 2.99728694 2.55008397 2.99588931 3.34861207 C2.9152952 49.2513114 2.82436368 95.15398023 2.71994839 141.05663188 C2.70742904 146.56428436 2.69499634 152.07193704 2.68261719 157.57958984 C2.68015119 158.67609622 2.6776852 159.7726026 2.67514448 160.90233645 C2.63538613 178.67287382 2.60265242 196.44341758 2.57250018 214.21397355 C2.54142126 232.43885209 2.5028272 250.66370346 2.45720994 268.88855147 C2.42928435 280.14048614 2.40726901 291.39240086 2.39273749 302.64436093 C2.38222132 310.35303243 2.36442658 318.06166538 2.34083296 325.77030787 C2.32742402 330.22235019 2.31729627 334.6743383 2.31578636 339.1264019 C2.3143346 343.19883213 2.30378457 347.27113167 2.28586559 351.3435218 C2.28099859 352.82002267 2.27952798 354.29653927 2.28172119 355.77304652 C2.28420653 357.77411848 2.27332613 359.77519387 2.26171303 361.77623367 C2.25943471 362.88957368 2.25715638 364.00291369 2.25480902 365.14999127 C2 368 2 368 0 372 C0 249.24 0 126.48 0 0 Z " fill="#040C12" transform="translate(90,88)"/>
<path d="M0 0 C0.66 0 1.32 0 2 0 C3.26557347 27.6359712 3.148213 55.27868436 3.1343255 82.93729591 C3.13279731 86.94610853 3.13289218 90.95491725 3.13381577 94.96372986 C3.133969 95.63655907 3.13412223 96.30938827 3.13428011 97.00260624 C3.13459995 98.37103117 3.13492417 99.73945609 3.1352527 101.10788101 C3.13808236 113.84415331 3.1348613 126.58041833 3.12945233 139.31668943 C3.12499486 150.14570025 3.12575644 160.97470032 3.13037109 171.80371094 C3.13577618 184.49286115 3.13779939 197.18200501 3.13475883 209.87115622 C3.13444041 211.23601882 3.13412604 212.60088142 3.13381577 213.96574402 C3.13358435 214.97204445 3.13358435 214.97204445 3.13334826 215.99867418 C3.13250009 220.63093833 3.13396006 225.26319819 3.13629532 229.89546204 C3.14915372 259.2861231 2.90626671 288.62147905 2 318 C-20.11 318.33 -42.22 318.66 -65 319 C-65.33 318.34 -65.66 317.68 -66 317 C-44.22 317 -22.44 317 0 317 C0 212.39 0 107.78 0 0 Z " fill="#10403B" transform="translate(343,23)"/>
<path d="M0 0 C0.33 0 0.66 0 1 0 C1.02289294 46.69378431 1.04051175 93.38756803 1.05106533 140.08135684 C1.05231602 145.59500939 1.05361035 151.10866192 1.05493164 156.62231445 C1.05519395 157.71997527 1.05545626 158.8176361 1.05572652 159.94855937 C1.06007685 177.71761109 1.06796092 195.48665958 1.0771528 213.25570939 C1.08650701 231.49077241 1.09205936 249.72583373 1.09408849 267.96089906 C1.09546004 279.21128373 1.09979075 290.46165925 1.10791647 301.7120411 C1.11320572 309.42868442 1.11479933 317.14532302 1.11350138 324.86196802 C1.11286141 329.31284768 1.1138369 333.76371135 1.11920547 338.21458817 C1.12409008 342.29412116 1.12430554 346.37362749 1.12089889 350.45316174 C1.12047817 351.92441151 1.12173105 353.39566297 1.12488318 354.86690942 C1.16230999 373.4236432 1.16230999 373.4236432 0 379 C-1.33333333 379.66666667 -2.66666667 380.33333333 -4 381 C-3.85769192 379.58297487 -3.71099254 378.1663904 -3.5625 376.75 C-3.48128906 375.96109375 -3.40007812 375.1721875 -3.31640625 374.359375 C-3 372 -3 372 -2.4887166 370.24134988 C-1.86483137 367.38009024 -1.86969901 364.70878782 -1.86412811 361.77902699 C-1.85927037 360.49327331 -1.85441262 359.20751964 -1.84940767 357.88280374 C-1.8490224 356.45285978 -1.84872665 355.0229158 -1.84851074 353.5929718 C-1.8446612 352.0764294 -1.84037381 350.55988806 -1.83568525 349.04334801 C-1.8240366 344.86993914 -1.81855909 340.69654119 -1.81405044 336.52311933 C-1.80810505 332.02482443 -1.79643667 327.52654409 -1.78541565 323.02825928 C-1.76705898 315.23242387 -1.75221655 307.43658813 -1.73963928 299.64074135 C-1.72136081 288.36810537 -1.69669646 277.09549024 -1.67026538 265.82287075 C-1.62746264 247.53320635 -1.58834823 229.24353622 -1.55224609 210.95385742 C-1.55008329 209.85882612 -1.54792049 208.76379481 -1.54569215 207.63558074 C-1.52816673 198.74831269 -1.51082003 189.86104429 -1.49348927 180.97377586 C-1.47832565 173.20086018 -1.4630935 165.42794464 -1.44775391 157.6550293 C-1.4445156 156.01311268 -1.4445156 156.01311268 -1.44121188 154.33802602 C-1.40514892 136.11417625 -1.36520121 117.89033699 -1.32245111 99.6665017 C-1.29624875 88.4158306 -1.27360111 77.16516276 -1.25546753 65.9144757 C-1.24283439 58.21335375 -1.22672119 50.51224431 -1.20781839 42.81113521 C-1.19702451 38.36147258 -1.18791906 33.91182214 -1.18312263 29.46214867 C-1.17871412 25.3956252 -1.16980112 21.32913843 -1.15717942 17.26263239 C-1.15341996 15.78495462 -1.15138125 14.30727135 -1.15115923 12.82958881 C-1.15062404 10.83420263 -1.14345681 8.83882142 -1.13587189 6.84344959 C-1.13375592 5.73113871 -1.13163995 4.61882784 -1.12945986 3.47281057 C-1 1 -1 1 0 0 Z " fill="#020D10" transform="translate(488,22)"/>
<path d="M0 0 C1.12563547 0.00149235 2.25127095 0.00298469 3.41101658 0.00452226 C4.65807625 0.01132605 5.90513592 0.01812984 7.18998528 0.02513981 C9.16490434 0.0299835 9.16490434 0.0299835 11.17972076 0.03492504 C14.84653393 0.04405402 18.51329816 0.05948715 22.18008494 0.07590783 C26.12963235 0.09250491 30.07919597 0.10331504 34.02876091 0.11481571 C40.87574094 0.13555114 47.72269987 0.15998118 54.56965828 0.18689632 C64.4693009 0.22580616 74.36895604 0.25918172 84.2686231 0.29119159 C100.32884096 0.34327213 116.38903972 0.39984989 132.4492321 0.4592371 C148.0533912 0.5169284 163.65755545 0.57251332 179.2617321 0.62525272 C180.22301923 0.62850244 181.18430636 0.63175216 182.1747234 0.63510036 C186.99705296 0.65138965 191.81938266 0.66763739 196.64171243 0.68386447 C236.66953555 0.81861142 276.69733031 0.960649 316.72511101 1.10743046 C316.72511101 1.76743046 316.72511101 2.42743046 316.72511101 3.10743046 C209.80511101 3.43743046 102.88511101 3.76743046 -7.27488899 4.10743046 C-7.27488899 3.11743046 -7.27488899 2.12743046 -7.27488899 1.10743046 C-4.70000498 -0.18001155 -2.8843432 -0.01008512 0 0 Z " fill="#00302C" transform="translate(26.27488899230957,19.892569541931152)"/>
<path d="M0 0 C0.33 0 0.66 0 1 0 C1 82.83 1 165.66 1 251 C58.42 251 115.84 251 175 251 C175 251.33 175 251.66 175 252 C170.93273886 252.96811958 167.12067945 253.13664594 162.94487 253.15821838 C162.24639397 253.16315636 161.54791794 253.16809434 160.82827598 253.17318195 C158.49448773 253.18850515 156.16072689 253.19690347 153.8269043 253.20532227 C152.1513088 253.21490486 150.47571571 253.22491517 148.80012512 253.23532104 C144.25512697 253.2623348 139.71011847 253.28336347 135.1650846 253.30332303 C130.41381432 253.32520436 125.66257581 253.35258254 120.91133118 253.37937927 C111.91585938 253.42927712 102.92036993 253.47422674 93.92486364 253.51740164 C83.68308361 253.56679886 73.44133546 253.62170777 63.19958627 253.67708123 C42.13308722 253.79085664 21.06655772 253.89770536 0 254 C-0.92923879 251.21228362 -1.12033233 249.58514719 -1.10743046 246.71089649 C-1.10593811 245.83059106 -1.10444576 244.95028562 -1.10290819 244.04330426 C-1.0961044 243.07541477 -1.08930061 242.10752527 -1.08229065 241.11030579 C-1.07906152 240.08277087 -1.07583239 239.05523595 -1.07250541 237.99656361 C-1.06039596 234.5371414 -1.0410302 231.07779723 -1.02172852 227.6184082 C-1.01158937 225.14509248 -1.0018953 222.6717749 -0.99261475 220.19845581 C-0.97159736 214.86516313 -0.94747016 209.53189827 -0.92053413 204.19863319 C-0.88159435 196.48759555 -0.8482324 188.77654173 -0.81623887 181.06547251 C-0.76418174 168.55526651 -0.70760347 156.04508519 -0.64819336 143.53491211 C-0.59048608 131.38127605 -0.53490102 119.22763335 -0.48217773 107.07397461 C-0.47892802 106.32502689 -0.4756783 105.57607917 -0.4723301 104.80443607 C-0.4560406 101.04724623 -0.4397929 97.29005622 -0.42356598 93.53286612 C-0.28885884 62.35521341 -0.14674399 31.17759849 0 0 Z " fill="#66CEC1" transform="translate(216,144)"/>
<path d="M0 0 C1.80535721 0.00666183 1.80535721 0.00666183 3.64718628 0.01345825 C4.31072113 0.0131662 4.97425598 0.01287415 5.65789795 0.01257324 C7.85481772 0.01396847 10.05139985 0.02953836 12.2482605 0.04519653 C13.76997696 0.04892599 15.29169581 0.05177328 16.81341553 0.05377197 C20.82150891 0.0614138 24.8294577 0.0810669 28.8374939 0.10317993 C32.92621911 0.12362659 37.01496766 0.13277116 41.10372925 0.14285278 C49.12853524 0.16431236 57.15322364 0.19845483 65.177948 0.24050903 C66.47879192 5.18540562 66.29699546 10.07159533 66.26023865 15.14292908 C66.25700952 16.14767153 66.25378039 17.15241398 66.25045341 18.18760318 C66.23837927 21.55789753 66.2190061 24.92811039 66.19967651 28.29837036 C66.18953363 30.71286848 66.17983997 33.12736852 66.17056274 35.54187012 C66.14957024 40.74198436 66.12544903 45.94207412 66.09848213 51.14216042 C66.05949804 58.66059097 66.02615627 66.17903824 65.99418687 73.6975015 C65.94216429 85.89602064 65.88558534 98.09451421 65.82614136 110.29299927 C65.76841045 122.14194748 65.71282521 133.99090256 65.66012573 145.83987427 C65.65687601 146.57037457 65.65362629 147.30087487 65.6502781 148.05351154 C65.63398828 151.71825567 65.61774064 155.38299998 65.60151398 159.04774439 C65.46686561 189.44536429 65.32474691 219.84294525 65.177948 250.24050903 C64.517948 250.24050903 63.857948 250.24050903 63.177948 250.24050903 C63.177948 168.40050903 63.177948 86.56050903 63.177948 2.24050903 C40.737948 2.24050903 18.297948 2.24050903 -4.822052 2.24050903 C-2.822052 0.24050903 -2.822052 0.24050903 0 0 Z " fill="#00120E" transform="translate(153.82205200195313,141.75949096679688)"/>
<path d="M0 0 C0 1.65 0 3.3 0 5 C-1.65 4.67 -3.3 4.34 -5 4 C-5 3.34 -5 2.68 -5 2 C-5.57431464 2.02969846 -6.14862927 2.05939691 -6.74034739 2.08999532 C-23.21210906 2.91717978 -39.6433853 3.14209902 -56.13395596 3.11606562 C-59.65094923 3.11166064 -63.16794125 3.1132145 -66.68493652 3.1139679 C-72.74794463 3.1144869 -78.81094179 3.11140617 -84.87394714 3.10573006 C-93.63954167 3.09752925 -102.40513103 3.09499115 -111.17072898 3.09374207 C-125.39962959 3.09156487 -139.6285244 3.08494129 -153.85742188 3.07543945 C-167.66210908 3.0662306 -181.46679471 3.05916685 -195.27148438 3.05493164 C-196.12543374 3.05466892 -196.9793831 3.05440619 -197.85920972 3.05413551 C-202.144127 3.05283027 -206.4290443 3.05156661 -210.7139616 3.05032361 C-246.1426452 3.03999256 -281.57132206 3.02241097 -317 3 C-317 2.34 -317 1.68 -317 1 C-277.33815307 0.87251206 -237.67630588 0.74510828 -198.01445832 0.61781773 C-193.33426453 0.60279706 -188.65407074 0.5877757 -183.97387695 0.57275391 C-182.57623657 0.56826798 -182.57623657 0.56826798 -181.15036102 0.56369144 C-166.05439943 0.51523717 -150.95843803 0.4667263 -135.86247668 0.41819459 C-120.37789281 0.36841476 -104.89330874 0.31869558 -89.40872449 0.26903296 C-79.85041775 0.23837534 -70.29211117 0.20767017 -60.73380478 0.17690456 C-54.18338071 0.15582504 -47.63295644 0.13480431 -41.08253203 0.11383021 C-37.30073986 0.10171937 -33.51894778 0.08958223 -29.73715591 0.07737541 C-25.64010393 0.06415167 -21.54305156 0.05105156 -17.44599915 0.03796387 C-16.24658748 0.03407292 -15.04717582 0.03018197 -13.81141835 0.02617311 C-12.71464369 0.02268972 -11.61786903 0.01920632 -10.48785877 0.01561737 C-9.54197543 0.01257961 -8.59609209 0.00954185 -7.62154561 0.00641203 C-5.08101797 0.00019816 -2.54053404 -0.00114964 0 0 Z " fill="#4CD2C7" transform="translate(341,24)"/>
<path d="M0 0 C10.37884933 -0.06944885 20.75764356 -0.12278521 31.13667774 -0.15543652 C35.95586657 -0.17110592 40.77489667 -0.19236741 45.59399414 -0.22631836 C50.24294792 -0.25886641 54.89174882 -0.2768434 59.54080772 -0.28463173 C61.31627497 -0.29018344 63.09173367 -0.30102435 64.867136 -0.31719017 C67.35016722 -0.33890417 69.83256325 -0.3419695 72.31567383 -0.34057617 C73.05294708 -0.351362 73.79022034 -0.36214783 74.54983521 -0.3732605 C78.92898618 -0.34659469 79.73941982 -0.26058018 83 3 C52.97 3 22.94 3 -8 3 C-8 2.67 -8 2.34 -8 2 C-5.36 1.67 -2.72 1.34 0 1 C0 0.67 0 0.34 0 0 Z " fill="#012F2B" transform="translate(404,20)"/>
<path d="M0 0 C0.6875 1.75 0.6875 1.75 1 4 C-1.55733432 8.14044604 -5.13433439 11.10075079 -9 14 C-9.66 14 -10.32 14 -11 14 C-11 14.66 -11 15.32 -11 16 C-15.2837641 18.57025846 -19.1725201 20.58707905 -24 22 C-21.51942621 19.1958731 -18.88850953 17.23392831 -15.75 15.25 C-9.46818884 11.16578615 -4.38851678 6.05776855 0 0 Z " fill="#04191A" transform="translate(471,425)"/>
<path d="M0 0 C-0.77810426 5.8767348 -3.87712097 8.96428543 -8 13 C-10.8125 15.0625 -10.8125 15.0625 -13 16 C-13.66 15.67 -14.32 15.34 -15 15 C-13.6875 13 -13.6875 13 -12 11 C-11.01 11 -10.02 11 -9 11 C-8.67 10.01 -8.34 9.02 -8 8 C-7.34 8 -6.68 8 -6 8 C-5.896875 7.236875 -5.79375 6.47375 -5.6875 5.6875 C-4.83195622 2.34310158 -3.70341243 0 0 0 Z " fill="#011311" transform="translate(418,375)"/>
<path d="M0 0 C4.29 0 8.58 0 13 0 C11.68 0.33 10.36 0.66 9 1 C9 2.65 9 4.3 9 6 C8.34 6 7.68 6 7 6 C7 4.35 7 2.7 7 1 C6.34 1 5.68 1 5 1 C4.67 2.32 4.34 3.64 4 5 C2.68 4.67 1.36 4.34 0 4 C0 2.68 0 1.36 0 0 Z " fill="#49CCBF" transform="translate(397,24)"/>
<path d="M0 0 C0.66 0.33 1.32 0.66 2 1 C1.67 1.33 1.34 1.66 1 2 C2.32 2.33 3.64 2.66 5 3 C5 3.66 5 4.32 5 5 C2.69 4.67 0.38 4.34 -2 4 C-2 4.66 -2 5.32 -2 6 C-2.66 6 -3.32 6 -4 6 C-4 5.34 -4 4.68 -4 4 C-6.64 4.33 -9.28 4.66 -12 5 C-12 4.34 -12 3.68 -12 3 C-11.30132812 2.86722656 -10.60265625 2.73445313 -9.8828125 2.59765625 C-8.51769531 2.33275391 -8.51769531 2.33275391 -7.125 2.0625 C-6.22007812 1.88847656 -5.31515625 1.71445312 -4.3828125 1.53515625 C-2.00043683 1.10036299 -2.00043683 1.10036299 0 0 Z " fill="#5CD7CA" transform="translate(403,391)"/>
<path d="M0 0 C-0.33 0.99 -0.66 1.98 -1 3 C-2.65 3 -4.3 3 -6 3 C-6.33 3.66 -6.66 4.32 -7 5 C-7 4.34 -7 3.68 -7 3 C-9.31 3.66 -11.62 4.32 -14 5 C-14.66 4.34 -15.32 3.68 -16 3 C-14.27318563 2.49193553 -12.54342021 1.99389533 -10.8125 1.5 C-9.84957031 1.2215625 -8.88664062 0.943125 -7.89453125 0.65625 C-5.14654124 0.03322392 -2.80401584 -0.12302812 0 0 Z " fill="#051F1E" transform="translate(429,455)"/>
<path d="M0 0 C-1.5625 2.0625 -1.5625 2.0625 -4 4 C-7.6875 3.875 -7.6875 3.875 -11 3 C-11.33 2.34 -11.66 1.68 -12 1 C-7.67265609 -1.22923777 -4.71599818 -0.92470553 0 0 Z " fill="#070D11" transform="translate(441,453)"/>
<path d="M0 0 C2 1 4 2 6 3 C4.68 5.31 3.36 7.62 2 10 C0.4375 8.375 0.4375 8.375 -1 6 C-0.6875 2.75 -0.6875 2.75 0 0 Z " fill="#59D9CB" transform="translate(473,411)"/>
<path d="M0 0 C0.33 0.66 0.66 1.32 1 2 C-2.82989106 3.80230168 -5.78121808 4.19622241 -10 4 C-10.33 3.34 -10.66 2.68 -11 2 C-7.17679443 0.57741188 -4.08718695 -0.24042276 0 0 Z " fill="#08171D" transform="translate(402,390)"/>
<path d="M0 0 C2.31 0.33 4.62 0.66 7 1 C7 1.66 7 2.32 7 3 C5.56342755 3.33730842 4.12569907 3.66969591 2.6875 4 C1.48673828 4.2784375 1.48673828 4.2784375 0.26171875 4.5625 C-2 5 -2 5 -5 5 C-5 4.34 -5 3.68 -5 3 C-4.360625 2.87625 -3.72125 2.7525 -3.0625 2.625 C-2.0415625 2.315625 -2.0415625 2.315625 -1 2 C-0.67 1.34 -0.34 0.68 0 0 Z " fill="#0E0103" transform="translate(429,455)"/>
<path d="M0 0 C1 2 1 2 0.4375 5.4375 C-1 9 -1 9 -4 11 C-4.99 11.33 -5.98 11.66 -7 12 C-7.66 11.67 -8.32 11.34 -9 11 C-8.51789063 10.45730469 -8.03578125 9.91460937 -7.5390625 9.35546875 C-6.90742188 8.64003906 -6.27578125 7.92460937 -5.625 7.1875 C-4.68527344 6.12595703 -4.68527344 6.12595703 -3.7265625 5.04296875 C-1.859401 2.91196181 -1.859401 2.91196181 0 0 Z " fill="#6AD9D0" transform="translate(418,377)"/>
<path d="M0 0 C0.99 0.66 1.98 1.32 3 2 C2.01 4.31 1.02 6.62 0 9 C0.66 9.33 1.32 9.66 2 10 C0.35 9.67 -1.3 9.34 -3 9 C-2.01 6.03 -1.02 3.06 0 0 Z " fill="#031416" transform="translate(483,403)"/>
<path d="M0 0 C0.33 0 0.66 0 1 0 C1 3.3 1 6.6 1 10 C-0.33333333 10.66666667 -1.66666667 11.33333333 -3 12 C-2.88541307 10.56163249 -2.75790884 9.12429034 -2.625 7.6875 C-2.55539062 6.88699219 -2.48578125 6.08648437 -2.4140625 5.26171875 C-2 3 -2 3 0 0 Z " fill="#05191A" transform="translate(487,391)"/>
<path d="M0 0 C-3.1254959 2.64465038 -6.08788267 3.84414715 -10 5 C-9.625 2.5625 -9.625 2.5625 -9 0 C-5.93109813 -1.53445094 -3.29905734 -0.54984289 0 0 Z " fill="#5CDFD2" transform="translate(440,449)"/>
<path d="M0 0 C0.99 0.66 1.98 1.32 3 2 C2.01 2.33 1.02 2.66 0 3 C-0.33 3.66 -0.66 4.32 -1 5 C-3.64 5 -6.28 5 -9 5 C-6.16009903 2.68600662 -3.54741874 1.000554 0 0 Z " fill="#042020" transform="translate(445,447)"/>
<path d="M0 0 C1.45047396 2.90094791 0.45356803 4.55972596 -0.4375 7.625 C-0.72496094 8.62789063 -1.01242187 9.63078125 -1.30859375 10.6640625 C-1.53675781 11.43492187 -1.76492188 12.20578125 -2 13 C-2.33 12.34 -2.66 11.68 -3 11 C-3.66 10.67 -4.32 10.34 -5 10 C-4.34 10 -3.68 10 -3 10 C-2.86722656 9.36191406 -2.73445313 8.72382813 -2.59765625 8.06640625 C-2.42105469 7.24011719 -2.24445313 6.41382813 -2.0625 5.5625 C-1.88847656 4.73878906 -1.71445312 3.91507812 -1.53515625 3.06640625 C-1 1 -1 1 0 0 Z " fill="#6BE6D5" transform="translate(485,392)"/>
<path d="M0 0 C0.99 0.99 1.98 1.98 3 3 C1 5 1 5 -2 7 C-2.66 6.67 -3.32 6.34 -4 6 C-2.68 4.02 -1.36 2.04 0 0 Z " fill="#062121" transform="translate(476,418)"/>
<path d="M0 0 C1.0326802 2.78823655 1.04509293 3.8677274 0.0625 6.75 C-0.288125 7.4925 -0.63875 8.235 -1 9 C-1.99 8.67 -2.98 8.34 -4 8 C-4 7.01 -4 6.02 -4 5 C-3.34 5 -2.68 5 -2 5 C-1.34 3.35 -0.68 1.7 0 0 Z " fill="#4ED8C9" transform="translate(422,369)"/>
<path d="M0 0 C-0.49831724 3.68754757 -1.10067643 5.60490662 -4 8 C-4.6875 5.6875 -4.6875 5.6875 -5 3 C-3.40083326 0.79162689 -2.76966516 0 0 0 Z " fill="#092325" transform="translate(418,375)"/>
</svg>
